<svg xmlns="http://www.w3.org/2000/svg" width="65" height="56" viewBox="0 0 65 56">
  <g id="my-courses" transform="translate(-100 -370)">
    <rect id="Rectangle_57" data-name="Rectangle 57" width="65" height="56" rx="20" transform="translate(100 370)" fill="#e6e9ee"/>
    <g id="_001-online-course" data-name="001-online-course" transform="translate(112.592 378.938)">
      <path id="Path_20" data-name="Path 20" d="M24.123,20.122a.677.677,0,0,1-.287-.064L12.387,14.671a.674.674,0,0,1,0-1.219L23.836,8.064a.674.674,0,0,1,.574,0l11.449,5.388a.674.674,0,0,1,0,1.219L24.409,20.058A.677.677,0,0,1,24.123,20.122Zm-9.867-6.061L24.123,18.7l9.867-4.644L24.123,9.418Z" transform="translate(-3.918 -2.612)" fill="#8b95a4"/>
      <path id="Path_21" data-name="Path 21" d="M25.755,28.891a.674.674,0,0,1-.3-.071l-8.082-4.041a.674.674,0,0,1-.372-.6v-5.15a.673.673,0,0,1,.96-.609l7.8,3.668,7.795-3.668a.674.674,0,0,1,.96.609v5.15a.674.674,0,0,1-.372.6L26.056,28.82A.674.674,0,0,1,25.755,28.891ZM18.347,23.76l7.408,3.7,7.408-3.7V20.088l-7.121,3.351a.674.674,0,0,1-.574,0l-7.121-3.351Z" transform="translate(-5.551 -5.993)" fill="#8b95a4"/>
      <path id="Path_22" data-name="Path 22" d="M41.123,17.347H29.673a.673.673,0,0,1,0-1.347H41.123a.673.673,0,1,1,0,1.347Z" transform="translate(-9.469 -5.224)" fill="#8b95a4"/>
      <path id="Path_23" data-name="Path 23" d="M46.673,23.408A.674.674,0,0,1,46,22.735V16.673a.673.673,0,0,1,1.347,0v6.061A.674.674,0,0,1,46.673,23.408Z" transform="translate(-15.02 -5.224)" fill="#8b95a4"/>
      <path id="Path_24" data-name="Path 24" d="M29.673,18.041A.674.674,0,0,1,29,17.367V14.673a.673.673,0,1,1,1.347,0v2.694A.674.674,0,0,1,29.673,18.041Z" transform="translate(-9.469 -4.571)" fill="#8b95a4"/>
      <path id="Path_25" data-name="Path 25" d="M44.673,28.367a.673.673,0,0,1-.56-1.047L45.46,25.3a.674.674,0,1,1,1.121.748l-1.347,2.02A.673.673,0,0,1,44.673,28.367Z" transform="translate(-14.367 -8.163)" fill="#8b95a4"/>
      <path id="Path_26" data-name="Path 26" d="M48.021,28.367a.673.673,0,0,1-.561-.3l-1.347-2.02a.674.674,0,0,1,1.121-.748l1.347,2.02a.673.673,0,0,1-.56,1.047Z" transform="translate(-15.02 -8.163)" fill="#8b95a4"/>
      <path id="Path_27" data-name="Path 27" d="M29.673,27.367A.674.674,0,0,1,29,26.694v-2.02a.673.673,0,1,1,1.347,0v2.02A.674.674,0,0,1,29.673,27.367Z" transform="translate(-9.469 -7.837)" fill="#8b95a4"/>
      <path id="Path_28" data-name="Path 28" d="M39.735,25.592H.673A.674.674,0,0,1,0,24.919V2.695A2.7,2.7,0,0,1,2.695,0H37.714a2.7,2.7,0,0,1,2.695,2.695V24.919A.674.674,0,0,1,39.735,25.592ZM1.347,24.245H39.061V2.695a1.349,1.349,0,0,0-1.348-1.348H2.695A1.349,1.349,0,0,0,1.347,2.695Z" transform="translate(0 0)" fill="#8b95a4"/>
      <path id="Path_29" data-name="Path 29" d="M37.714,42.735H2.695A2.7,2.7,0,0,1,0,40.04V36.673A.674.674,0,0,1,.673,36H39.735a.674.674,0,0,1,.673.673V40.04A2.7,2.7,0,0,1,37.714,42.735ZM1.347,37.347V40.04a1.349,1.349,0,0,0,1.348,1.348H37.714a1.349,1.349,0,0,0,1.348-1.348V37.347Z" transform="translate(0 -11.755)" fill="#8b95a4"/>
      <path id="Path_30" data-name="Path 30" d="M30.714,41.347H26.673a.673.673,0,0,1,0-1.347h4.041a.673.673,0,0,1,0,1.347Z" transform="translate(-8.49 -13.061)" fill="#8b95a4"/>
      <path id="Path_31" data-name="Path 31" d="M38.347,26.9H4.673A.674.674,0,0,1,4,26.225V4.673A.674.674,0,0,1,4.673,4H38.347a.674.674,0,0,1,.673.673V26.225A.674.674,0,0,1,38.347,26.9Zm-33-1.347H37.674V5.347H5.347Z" transform="translate(-1.306 -1.306)" fill="#8b95a4"/>
      <path id="Path_32" data-name="Path 32" d="M33.531,56.041H16.02a2.02,2.02,0,1,1,0-4.041h17.51a2.02,2.02,0,1,1,0,4.041ZM16.02,53.347a.673.673,0,1,0,0,1.347h17.51a.673.673,0,0,0,0-1.347Z" transform="translate(-4.571 -16.979)" fill="#8b95a4"/>
      <path id="Path_33" data-name="Path 33" d="M33.49,50.735H18.673a.673.673,0,1,1,0-1.347c2.235,0,3.367-1.586,3.367-4.714A.674.674,0,0,1,22.714,44h6.735a.674.674,0,0,1,.673.673c0,3.128,1.133,4.714,3.367,4.714a.673.673,0,1,1,0,1.347ZM21.954,49.388H30.21a6.445,6.445,0,0,1-1.416-4.041H23.37A6.448,6.448,0,0,1,21.954,49.388Z" transform="translate(-5.877 -14.367)" fill="#8b95a4"/>
    </g>
  </g>
</svg>
