<svg xmlns="http://www.w3.org/2000/svg" width="65" height="56" viewBox="0 0 65 56">
  <g id="my-groups" transform="translate(-100 -290)">
    <rect id="Rectangle_56" data-name="Rectangle 56" width="65" height="56" rx="20" transform="translate(100 290)" fill="#e6e9ee"/>
    <g id="_002-chat-group" data-name="002-chat-group" transform="translate(113.123 298.817)">
      <path id="Path_34" data-name="Path 34" d="M126.194,122.036l-5.1-3.958V116.42a6.262,6.262,0,0,0,3.044-5.368v-5.031a4.183,4.183,0,0,0-4.178-4.178h-4.677l-.322-.616a.917.917,0,0,0-1.324-.337,4.551,4.551,0,0,0-2.018,3.785v6.376a6.261,6.261,0,0,0,.279,1.854.551.551,0,1,0,1.054-.326,5.158,5.158,0,0,1-.23-1.528v-3.24a30.7,30.7,0,0,1,10.313,0v3.238a5.155,5.155,0,0,1-9.048,3.381.551.551,0,1,0-.832.724,6.275,6.275,0,0,0,1.338,1.158v1.762l-5.1,3.958a6.508,6.508,0,0,0-2.532,5.173v3.2a.551.551,0,0,0,1.1,0v-3.2a5.412,5.412,0,0,1,2.106-4.3l4.576-3.555a3.3,3.3,0,0,0,6.287,0l4.576,3.555a5.412,5.412,0,0,1,2.106,4.3v3.2a.551.551,0,0,0,1.1,0v-3.2a6.509,6.509,0,0,0-2.532-5.173Zm-13.468-15.342v-2.018a3.449,3.449,0,0,1,1.36-2.748l.378.722a.551.551,0,0,0,.489.3h5.011a3.078,3.078,0,0,1,3.075,3.075v.674A31.8,31.8,0,0,0,112.726,106.694Zm5.072,13.851a2.2,2.2,0,0,1-2.2-2.2V116.88a6.251,6.251,0,0,0,4.4.064v1.4A2.2,2.2,0,0,1,117.8,120.545Z" transform="translate(-99.012 -93.107)" fill="#8e96a5" stroke="#8e96a5" stroke-width="1"/>
      <path id="Path_35" data-name="Path 35" d="M163.908,458.054a.552.552,0,0,0-.551.552v2.844a.551.551,0,1,0,1.1,0v-2.844A.551.551,0,0,0,163.908,458.054Z" transform="translate(-151.345 -424.151)" fill="#8e96a5" stroke="#8e96a5" stroke-width="1"/>
      <path id="Path_36" data-name="Path 36" d="M333.169,458.054a.552.552,0,0,0-.551.552v2.844a.551.551,0,1,0,1.1,0v-2.844A.552.552,0,0,0,333.169,458.054Z" transform="translate(-308.161 -424.151)" fill="#8e96a5" stroke="#8e96a5" stroke-width="1"/>
      <path id="Path_37" data-name="Path 37" d="M2.419,238.793l4.152-3.576a.551.551,0,0,0,.192-.418v-1.361a3.489,3.489,0,0,0,2.581,0V234.8a.551.551,0,0,0,.192.418l1.073.924a.551.551,0,1,0,.72-.836l-.881-.759v-1.809a3.492,3.492,0,0,0,1.109-2.553v-1.5a3.5,3.5,0,0,0-7,0v1.5a3.492,3.492,0,0,0,1.109,2.553v1.809L1.7,237.957a1.132,1.132,0,0,0-.394.858v1.916a1.072,1.072,0,0,0,.883,1.056,33.213,33.213,0,0,0,5.248.516h.011a.551.551,0,0,0,.01-1.1,32.122,32.122,0,0,1-5.049-.495v-1.891a.03.03,0,0,1,.01-.022Zm3.235-10.114a2.4,2.4,0,0,1,4.8,0v1.5a2.4,2.4,0,1,1-4.8,0Z" transform="translate(-1.21 -208.397)" fill="#8e96a5" stroke="#8e96a5" stroke-width="1"/>
      <path id="Path_38" data-name="Path 38" d="M377.372,234.8a.552.552,0,0,0,.192.418l.913.786a.551.551,0,1,0,.72-.836l-.721-.621v-1.809a3.492,3.492,0,0,0,1.109-2.553v-1.5a3.5,3.5,0,0,0-7,0v1.5a3.492,3.492,0,0,0,1.109,2.553v1.809l-.881.759a.551.551,0,0,0,.72.836l1.073-.924a.551.551,0,0,0,.192-.418v-1.361a3.489,3.489,0,0,0,2.581,0V234.8Zm-1.29-2.216a2.4,2.4,0,0,1-2.4-2.4v-1.5a2.4,2.4,0,0,1,4.8,0v1.5A2.4,2.4,0,0,1,376.081,232.583Z" transform="translate(-345.183 -208.397)" fill="#8e96a5" stroke="#8e96a5" stroke-width="1"/>
      <path id="Path_39" data-name="Path 39" d="M427.256,381.831,425.83,380.6a.552.552,0,0,0-.72.836l1.426,1.228a.03.03,0,0,1,.01.023v1.891a32.123,32.123,0,0,1-5.049.495.551.551,0,0,0,.01,1.1h.01a33.226,33.226,0,0,0,5.248-.516,1.072,1.072,0,0,0,.883-1.056V382.69a1.132,1.132,0,0,0-.394-.859Z" transform="translate(-390.004 -352.272)" fill="#8e96a5" stroke="#8e96a5" stroke-width="1"/>
      <path id="Path_40" data-name="Path 40" d="M353.955,37.389h-.289a.551.551,0,0,0-.487.293l-.851,1.6-.823-1.595a.551.551,0,0,0-.49-.3h-3.42a.551.551,0,1,0,0,1.1h3.084l.737,1.428a1.022,1.022,0,0,0,.9.555h.007a1.022,1.022,0,0,0,.9-.544l.766-1.44a5.215,5.215,0,0,0,4.391-7.963.551.551,0,1,0-.937.582,4.113,4.113,0,0,1-3.5,6.278Z" transform="translate(-321.525 -27.82)" fill="#8e96a5" stroke="#8e96a5" stroke-width="1"/>
      <path id="Path_41" data-name="Path 41" d="M5.174,10.671l.766,1.44a1.022,1.022,0,0,0,.905.544h.006a1.022,1.022,0,0,0,.9-.555l.737-1.428h2.636a.551.551,0,1,0,0-1.1H8.156a.552.552,0,0,0-.49.3l-.823,1.595-.851-1.6a.551.551,0,0,0-.487-.293H5.216a4.113,4.113,0,1,1,0-8.226H32.43a4.117,4.117,0,0,1,1.977.506.551.551,0,0,0,.531-.967A5.223,5.223,0,0,0,32.43.24H5.216a5.216,5.216,0,0,0-.042,10.431Z" transform="translate(0 0)" fill="#8e96a5" stroke="#8e96a5" stroke-width="1"/>
      <path id="Path_42" data-name="Path 42" d="M116.764,57.688a.736.736,0,1,0,.6-.6A.737.737,0,0,0,116.764,57.688Z" transform="translate(-108.169 -52.658)" fill="#8e96a5" stroke="#8e96a5" stroke-width="1"/>
      <path id="Path_43" data-name="Path 43" d="M202.694,57.812a.735.735,0,1,0,.735-.735A.736.736,0,0,0,202.694,57.812Z" transform="translate(-187.79 -52.658)" fill="#8e96a5" stroke="#8e96a5" stroke-width="1"/>
      <path id="Path_44" data-name="Path 44" d="M376.693,57.812a.735.735,0,1,0-.735.735A.736.736,0,0,0,376.693,57.812Z" transform="translate(-347.632 -52.658)" fill="#8e96a5" stroke="#8e96a5" stroke-width="1"/>
      <path id="Path_45" data-name="Path 45" d="M289.282,57.812a.735.735,0,1,0,.735-.735A.736.736,0,0,0,289.282,57.812Z" transform="translate(-268.011 -52.658)" fill="#8e96a5" stroke="#8e96a5" stroke-width="1"/>
    </g>
  </g>
</svg>
