<svg xmlns="http://www.w3.org/2000/svg" width="65" height="56" viewBox="0 0 65 56">
  <g id="all-members" transform="translate(-100 -452)">
    <rect id="Rectangle_58" data-name="Rectangle 58" width="65" height="56" rx="20" transform="translate(100 452)" fill="#e6e9ee"/>
    <g id="_001-group" data-name="001-group" transform="translate(113.978 375.99)">
      <g id="Group_81" data-name="Group 81" transform="translate(0 92.25)">
        <path id="Path_69" data-name="Path 69" d="M32.037,102.6a4.229,4.229,0,1,0-4.852,0,7.328,7.328,0,0,0-2.5,1.466,9.482,9.482,0,0,0-3.43-1.869,5.358,5.358,0,1,0-5.541,0,9.561,9.561,0,0,0-3.394,1.847,7.387,7.387,0,0,0-2.47-1.437,4.229,4.229,0,1,0-4.852,0,7.423,7.423,0,0,0-5,7.014v.484a.032.032,0,0,0,.029.029H8.993a9.858,9.858,0,0,0-.081,1.239v.5a3.9,3.9,0,0,0,3.9,3.9H24.173a3.9,3.9,0,0,0,3.9-3.9v-.5a9.858,9.858,0,0,0-.081-1.239h9.023a.032.032,0,0,0,.029-.029v-.484A7.452,7.452,0,0,0,32.037,102.6Zm-5.482-3.467a3.056,3.056,0,1,1,3.115,3.056h-.117A3.052,3.052,0,0,1,26.555,99.132Zm-12.27-1.525a4.185,4.185,0,1,1,4.427,4.178h-.484A4.191,4.191,0,0,1,14.285,97.608ZM4.346,99.132a3.056,3.056,0,1,1,3.115,3.056H7.344A3.057,3.057,0,0,1,4.346,99.132ZM9.2,108.954H1.187a6.263,6.263,0,0,1,6.171-5.592h.088a6.2,6.2,0,0,1,3.995,1.488A9.624,9.624,0,0,0,9.2,108.954Zm17.686,2.917a2.731,2.731,0,0,1-2.727,2.727H12.8a2.731,2.731,0,0,1-2.727-2.727v-.5a8.419,8.419,0,0,1,8.158-8.407c.081.007.169.007.249.007s.169,0,.249-.007a8.419,8.419,0,0,1,8.158,8.407Zm.872-2.917a9.6,9.6,0,0,0-2.221-4.075,6.227,6.227,0,0,1,4.031-1.517h.088a6.263,6.263,0,0,1,6.171,5.592Z" transform="translate(0 -92.25)" fill="#8c95a4"/>
      </g>
    </g>
  </g>
</svg>
