<svg xmlns="http://www.w3.org/2000/svg" width="65" height="56" viewBox="0 0 65 56">
  <g id="challenge-req" transform="translate(-100 -452)">
    <rect id="Rectangle_58" data-name="Rectangle 58" width="65" height="56" rx="20" transform="translate(100 452)" fill="#e6e9ee"/>
    <g id="_004-achievement" data-name="004-achievement" transform="translate(112.658 459)">
      <path id="Path_49" data-name="Path 49" d="M38.771,13.277l2.373-7.121a.6.6,0,0,0-.572-.794H32.564V3.04a.6.6,0,0,0-.6-.6H24.273a.6.6,0,0,0,0,1.206h7.085V17.06h-12.6V3.643h2.7a.6.6,0,1,0,0-1.206h-2.7V1.416A1.417,1.417,0,0,0,17.338,0H15.713A1.417,1.417,0,0,0,14.3,1.416V19.9H12.74a3.875,3.875,0,0,0-2.321.777l-.659.5a.6.6,0,1,0,.727.963l.659-.5a2.662,2.662,0,0,1,1.594-.534H14.3v2.043H12.951a.6.6,0,1,0,0,1.206h8.41a1.05,1.05,0,0,1,1.06.983A1.021,1.021,0,0,1,21.4,26.4H14.9a.6.6,0,0,0,0,1.206h8.085a1.051,1.051,0,0,1,1.06.984,1.022,1.022,0,0,1-1.022,1.06H14.9a.6.6,0,0,0,0,1.206h6.5a1.022,1.022,0,0,1,1.021,1.059,1.051,1.051,0,0,1-1.06.984H14.9a.6.6,0,0,0,0,1.206h4.874A1.021,1.021,0,0,1,20.8,35.167a1.051,1.051,0,0,1-1.061.983l-15.929.006V25.09H5.288a3.872,3.872,0,0,0,2.321-.778l.631-.477a.6.6,0,0,0-.727-.963l-.632.477a2.658,2.658,0,0,1-1.594.534H.6a.6.6,0,0,0-.6.6V36.761a.6.6,0,0,0,.6.6l13.695,0v2.4a1.417,1.417,0,0,0,1.416,1.416h1.625a1.417,1.417,0,0,0,1.416-1.416v-2.4h.982A2.267,2.267,0,0,0,22,35.21a2.215,2.215,0,0,0-.262-1.134,2.262,2.262,0,0,0,1.886-2.115,2.215,2.215,0,0,0-.259-1.128,2.23,2.23,0,0,0,1.884-2.283,2.23,2.23,0,0,0-1.886-2.117,2.216,2.216,0,0,0,.261-1.133,2.239,2.239,0,0,0-2.265-2.147H18.754V18.266H22.91v2.322a.6.6,0,0,0,.6.6h9.911a.6.6,0,0,0,0-1.206H27.1l5.06-1.751a.61.61,0,0,0,.406-.59V6.568h7.172l-2.172,6.518a.6.6,0,0,0,0,.381l2.172,6.517h-3.5a.6.6,0,0,0,0,1.206h4.332a.6.6,0,0,0,.572-.794ZM1.206,25.09H2.6V36.157H1.206ZM17.547,39.76a.209.209,0,0,1-.209.209H15.713a.209.209,0,0,1-.209-.209v-2.4h2.043ZM15.5,23.153V1.416a.209.209,0,0,1,.209-.209h1.625a.209.209,0,0,1,.209.209V23.153Zm12.871-4.887-4.26,1.475V18.266Z" fill="#8d95a5"/>
    </g>
  </g>
</svg>
