<svg xmlns="http://www.w3.org/2000/svg" width="65" height="56" viewBox="0 0 65 56">
  <g id="group-settings" transform="translate(-100 -452)">
    <rect id="Rectangle_58" data-name="Rectangle 58" width="65" height="56" rx="20" transform="translate(100 452)" fill="#e6e9ee"/>
    <g id="_001-settings" data-name="001-settings" transform="translate(116.021 463.511)">
      <g id="Group_136" data-name="Group 136" transform="translate(0 0)">
        <path id="Path_94" data-name="Path 94" d="M18.028,32.979H14.95a2.058,2.058,0,0,1-2.042-1.814l-.328-2.578a12.985,12.985,0,0,1-1.888-.782L8.639,29.4a2.05,2.05,0,0,1-2.728-.173L3.747,27.063a2.044,2.044,0,0,1-.168-2.719l1.6-2.054A12.686,12.686,0,0,1,4.393,20.4L1.81,20.073A2.063,2.063,0,0,1,0,18.028V14.95a2.058,2.058,0,0,1,1.814-2.042l2.578-.328a12.985,12.985,0,0,1,.782-1.888L3.58,8.639A2.049,2.049,0,0,1,3.754,5.91L5.918,3.746a2.046,2.046,0,0,1,2.719-.168l2.053,1.6a12.939,12.939,0,0,1,1.889-.782l.328-2.583A2.058,2.058,0,0,1,14.95,0h3.078A2.058,2.058,0,0,1,20.07,1.814L20.4,4.392a12.939,12.939,0,0,1,1.889.782l2.053-1.6a2.048,2.048,0,0,1,2.728.175l2.164,2.164A2.044,2.044,0,0,1,29.4,8.636l-1.6,2.054a12.686,12.686,0,0,1,.782,1.888l2.583.328a2.06,2.06,0,0,1,1.808,2.043v3.078a2.058,2.058,0,0,1-1.814,2.042l-2.578.328a12.986,12.986,0,0,1-.782,1.888l1.6,2.053a2.047,2.047,0,0,1-.175,2.728l-2.164,2.164a2.043,2.043,0,0,1-2.719.168l-2.054-1.6a12.686,12.686,0,0,1-1.888.782l-.328,2.583A2.06,2.06,0,0,1,18.028,32.979ZM10.622,26.3a.7.7,0,0,1,.335.087A11.533,11.533,0,0,0,13.395,27.4a.686.686,0,0,1,.492.573l.385,3.023a.7.7,0,0,0,.679.61h3.078a.692.692,0,0,0,.677-.6l.386-3.029a.686.686,0,0,1,.492-.573,11.533,11.533,0,0,0,2.438-1.011.686.686,0,0,1,.756.058l2.4,1.869a.676.676,0,0,0,.9-.047L28.26,26.09a.679.679,0,0,0,.054-.907l-1.869-2.4a.686.686,0,0,1-.058-.756A11.533,11.533,0,0,0,27.4,19.585a.686.686,0,0,1,.573-.492l3.023-.385a.7.7,0,0,0,.61-.68V14.95a.692.692,0,0,0-.6-.677l-3.029-.386a.686.686,0,0,1-.573-.492,11.533,11.533,0,0,0-1.011-2.438.683.683,0,0,1,.058-.756l1.869-2.4a.674.674,0,0,0-.045-.9L26.091,4.72a.676.676,0,0,0-.907-.054l-2.4,1.869a.688.688,0,0,1-.757.058,11.486,11.486,0,0,0-2.438-1.011.686.686,0,0,1-.492-.573l-.385-3.023a.7.7,0,0,0-.68-.611H14.95a.692.692,0,0,0-.677.6l-.386,3.029a.689.689,0,0,1-.492.574,11.482,11.482,0,0,0-2.438,1.01.688.688,0,0,1-.757-.056L7.8,4.665a.674.674,0,0,0-.9.045L4.719,6.89a.679.679,0,0,0-.054.907l1.869,2.4a.686.686,0,0,1,.058.756A11.462,11.462,0,0,0,5.58,13.395a.686.686,0,0,1-.573.492l-3.023.385a.7.7,0,0,0-.61.679v3.078a.692.692,0,0,0,.6.677l3.029.386a.686.686,0,0,1,.573.492A11.533,11.533,0,0,0,6.59,22.021a.683.683,0,0,1-.058.756l-1.869,2.4a.674.674,0,0,0,.045.9l2.178,2.178a.679.679,0,0,0,.907.054l2.4-1.869a.708.708,0,0,1,.423-.143Z" transform="translate(0 0)" fill="#8c95a4"/>
      </g>
      <g id="Group_137" data-name="Group 137" transform="translate(9.619 9.619)">
        <path id="Path_95" data-name="Path 95" d="M13.871,20.741a6.871,6.871,0,1,1,6.871-6.871A6.878,6.878,0,0,1,13.871,20.741Zm0-12.367a5.5,5.5,0,1,0,5.5,5.5A5.5,5.5,0,0,0,13.871,8.374Z" transform="translate(-7 -7)" fill="#8c95a4"/>
      </g>
    </g>
  </g>
</svg>
