<svg xmlns="http://www.w3.org/2000/svg" width="65" height="56" viewBox="0 0 65 56">
  <g id="Group_272" data-name="Group 272" transform="translate(-100 -212)">
    <rect id="Rectangle_55" data-name="Rectangle 55" width="65" height="56" rx="20" transform="translate(100 212)" fill="#e6e9ee"/>
    <g id="_002-feed" data-name="002-feed" transform="translate(114.977 222.477)">
      <path id="Path_70" data-name="Path 70" d="M33.294,0H1.752A1.752,1.752,0,0,0,0,1.752V33.294a1.752,1.752,0,0,0,1.752,1.752H33.294a1.752,1.752,0,0,0,1.752-1.752V1.752A1.752,1.752,0,0,0,33.294,0ZM8.663,20.119a.607.607,0,0,0-.972,0L1.168,29.906V10.514h32.71V28.037L24.415,15.42a.584.584,0,0,0-.934,0l-9.5,12.669ZM1.168,1.752a.584.584,0,0,1,.584-.584H33.294a.584.584,0,0,1,.584.584V9.346H1.168Zm.584,32.126a.584.584,0,0,1-.584-.584V32.009L8.177,21.5l8.254,12.383Zm31.542,0H17.836L14.661,29.12l9.287-12.375,9.93,13.239v3.31a.584.584,0,0,1-.584.584Zm0,0" fill="#8b95a4"/>
      <path id="Path_71" data-name="Path 71" d="M42.336,40a2.336,2.336,0,1,0,2.336,2.336A2.337,2.337,0,0,0,42.336,40Zm0,3.5A1.168,1.168,0,1,1,43.5,42.336,1.168,1.168,0,0,1,42.336,43.5Zm0,0" transform="translate(-37.079 -37.079)" fill="#8b95a4"/>
      <path id="Path_72" data-name="Path 72" d="M150.2,40H128.584a.584.584,0,0,0,0,1.168H150.2a.584.584,0,0,0,0-1.168Zm0,0" transform="translate(-118.654 -37.079)" fill="#8b95a4"/>
      <path id="Path_73" data-name="Path 73" d="M150.2,88H128.584a.584.584,0,0,0,0,1.168H150.2a.584.584,0,0,0,0-1.168Zm0,0" transform="translate(-118.654 -81.575)" fill="#8b95a4"/>
    </g>
  </g>
</svg>
