<svg xmlns="http://www.w3.org/2000/svg" width="65" height="56" viewBox="0 0 65 56">
  <g id="my-challenges" transform="translate(-100 -452)">
    <rect id="my-challenges-2" data-name="my-challenges" width="65" height="56" rx="20" transform="translate(100 452)" fill="#e6e9ee"/>
    <g id="_001-success" data-name="001-success" transform="translate(82.175 442.616)">
      <path id="Path_96" data-name="Path 96" d="M67.187,240H55.671a.64.64,0,0,0-.64.64v4.478H44.155a.64.64,0,0,0-.64.64v4.478H32.64a.64.64,0,0,0-.64.64v8.957a.64.64,0,0,0,.64.64H67.187a.64.64,0,0,0,.64-.64V240.64A.64.64,0,0,0,67.187,240ZM44.8,246.4H55.031v12.8H44.8ZM33.28,251.516H43.516v7.677H33.28Zm33.267,7.677H56.311V241.28H66.547Z" transform="translate(0 -206.088)" fill="#8d95a5"/>
      <path id="Path_97" data-name="Path 97" d="M347.486,20.346a.64.64,0,0,0-.51-.429l-3.2-.489-1.437-3.061a.64.64,0,0,0-1.158,0l-1.436,3.061-3.2.489a.64.64,0,0,0-.361,1.08l2.334,2.392-.552,3.385a.64.64,0,0,0,.94.662l2.854-1.577,2.854,1.577a.64.64,0,0,0,.941-.663L345,23.387,347.337,21A.64.64,0,0,0,347.486,20.346Zm-3.624,2.379a.64.64,0,0,0-.174.55l.392,2.4-2.01-1.111a.64.64,0,0,0-.619,0l-2.01,1.111.392-2.4a.64.64,0,0,0-.174-.55l-1.689-1.732,2.306-.352a.64.64,0,0,0,.482-.361l1-2.136,1,2.136a.64.64,0,0,0,.482.361l2.306.352Z" transform="translate(-279.693)" fill="#8d95a5"/>
      <path id="Path_98" data-name="Path 98" d="M32.64,131.515h7.037a.64.64,0,0,0,.572-.354l2.382-4.764h8.561a.64.64,0,0,0,.543-.3l3.2-5.118a.64.64,0,0,0-1.085-.678l-3.011,4.817h-8.6a.64.64,0,0,0-.572.354l-2.382,4.764H32.64a.64.64,0,1,0,0,1.28Z" transform="translate(0 -95.683)" fill="#8d95a5"/>
    </g>
  </g>
</svg>
