<svg xmlns="http://www.w3.org/2000/svg" width="104.539" height="72.797" viewBox="0 0 104.539 72.797">
  <g id="_002-gamepad" data-name="002-gamepad" transform="translate(0 0)">
    <path id="Path_79" data-name="Path 79" d="M117.881,267.2l-2.067-5.787a1.523,1.523,0,1,0-2.869,1.025l2.067,5.787a23.683,23.683,0,0,1-2.962,21.617,7.129,7.129,0,0,1-11.612.041L89.517,274.664a8.752,8.752,0,0,0-7.095-3.642h-30.5a8.752,8.752,0,0,0-7.1,3.642L33.9,289.883a7.047,7.047,0,0,1-5.79,2.972h-.026a7.048,7.048,0,0,1-5.8-3.013c-.263-.371-.517-.755-.758-1.139a1.523,1.523,0,1,0-2.585,1.612c.271.434.558.867.855,1.286a10.06,10.06,0,0,0,8.272,4.3h.038a10.059,10.059,0,0,0,8.265-4.243L47.3,276.44a5.7,5.7,0,0,1,4.62-2.371h30.5a5.7,5.7,0,0,1,4.62,2.371l10.921,15.219a10.058,10.058,0,0,0,8.265,4.243h.038a10.06,10.06,0,0,0,8.272-4.3A26.732,26.732,0,0,0,117.881,267.2Z" transform="translate(-14.895 -223.105)" fill="#6573ff"/>
    <path id="Path_80" data-name="Path 80" d="M3.961,137.3a23.528,23.528,0,0,1,.471-14.448l11-30.782A17.053,17.053,0,0,1,31.453,80.778H73.1A17.053,17.053,0,0,1,89.122,92.07l6.605,18.491a1.523,1.523,0,1,0,2.869-1.025L91.99,91.046A20.106,20.106,0,0,0,73.1,77.732H31.453A20.1,20.1,0,0,0,12.56,91.046l-11,30.782a26.558,26.558,0,0,0-.532,16.308,1.524,1.524,0,0,0,2.93-.836Z" transform="translate(0 -77.732)" fill="#6573ff"/>
    <path id="Path_81" data-name="Path 81" d="M99.272,134.161H103.5a2.762,2.762,0,0,0,2.759-2.759v-2.812h2.812a2.762,2.762,0,0,0,2.759-2.759V121.6a2.762,2.762,0,0,0-2.759-2.759H106.26v-2.812a2.762,2.762,0,0,0-2.759-2.759H99.272a2.762,2.762,0,0,0-2.759,2.759v2.812H93.7a2.762,2.762,0,0,0-2.759,2.759v4.229a2.762,2.762,0,0,0,2.759,2.759h2.812V131.4a2.762,2.762,0,0,0,2.759,2.759Zm-5.284-8.618v-3.655h3.636a1.937,1.937,0,0,0,1.935-1.935v-3.636h3.655v3.636a1.937,1.937,0,0,0,1.935,1.935h3.636v3.655h-3.636a1.937,1.937,0,0,0-1.935,1.935v3.636H99.559v-3.636a1.937,1.937,0,0,0-1.935-1.935Z" transform="translate(-72.373 -106.014)" fill="#6573ff"/>
    <path id="Path_82" data-name="Path 82" d="M359.776,125.033a2.5,2.5,0,1,0,2.5,2.5A2.5,2.5,0,0,0,359.776,125.033Z" transform="translate(-284.325 -115.375)" fill="#6573ff"/>
    <path id="Path_83" data-name="Path 83" d="M359.776,184.519a2.5,2.5,0,1,0-2.5-2.5A2.5,2.5,0,0,0,359.776,184.519Z" transform="translate(-284.325 -158.732)" fill="#6573ff"/>
    <circle id="Ellipse_18" data-name="Ellipse 18" cx="2.503" cy="2.503" r="2.503" transform="translate(78.509 15.219)" fill="#6573ff"/>
    <path id="Path_84" data-name="Path 84" d="M335.039,154.776a2.5,2.5,0,1,0-2.5,2.5A2.5,2.5,0,0,0,335.039,154.776Z" transform="translate(-262.647 -137.054)" fill="#6573ff"/>
    <path id="Path_85" data-name="Path 85" d="M281.446,227.041a9.021,9.021,0,1,0-9.021-9.021A9.031,9.031,0,0,0,281.446,227.041Zm0-14.995a5.974,5.974,0,1,1-5.974,5.974A5.981,5.981,0,0,1,281.446,212.046Z" transform="translate(-216.802 -182.198)" fill="#6573ff"/>
    <path id="Path_86" data-name="Path 86" d="M169.1,223.993a5.918,5.918,0,0,1-2.56-.574,1.523,1.523,0,1,0-1.307,2.752,9.022,9.022,0,1,0-5.154-8.152,9.1,9.1,0,0,0,.1,1.331,1.523,1.523,0,0,0,3.013-.446,6.058,6.058,0,0,1-.065-.885,5.974,5.974,0,1,1,5.974,5.974Z" transform="translate(-127.393 -182.196)" fill="#6573ff"/>
    <g id="Group_95" data-name="Group 95" transform="translate(46.318 9.886)">
      <path id="Path_87" data-name="Path 87" d="M232.839,138.129a5.99,5.99,0,1,1,5.99-5.99A6,6,0,0,1,232.839,138.129Zm0-8.917a2.927,2.927,0,1,0,2.927,2.927A2.93,2.93,0,0,0,232.839,129.212Z" transform="translate(-226.849 -126.149)" fill="#6573ff"/>
    </g>
  </g>
</svg>
