<svg xmlns="http://www.w3.org/2000/svg" width="103.342" height="95.566" viewBox="0 0 103.342 95.566">
  <g id="_003-cooperation" data-name="003-cooperation" transform="translate(5)">
    <path id="Path_88" data-name="Path 88" d="M102.887,136.824,95.759,129.7a1.557,1.557,0,0,0-2.2,2.2l.993.993L70.619,156.821l-8.537-8.537,23.931-23.931,2.44,2.44a1.557,1.557,0,0,0,2.2-2.2l-3.532-3.532c-2.8-2.869-4.637-6.138-7.227-9.206a6.047,6.047,0,0,0-5.1-9.551,6.065,6.065,0,0,0-6.267-6.27,6.07,6.07,0,0,0-6.272-6.269c.269-5.711-6.869-8.28-10.583-4.155l-.367-.367a5.987,5.987,0,0,0-10.216,4.525,6.062,6.062,0,0,0-6.272,6.269,5.983,5.983,0,0,0-3.93,1.227,7.466,7.466,0,0,0-6.48.787,8.582,8.582,0,0,0-4.147,7.085L18.5,118.783.456,136.824a1.557,1.557,0,0,0,0,2.2l26.132,26.132a1.557,1.557,0,0,0,2.2,0l15.773-15.773a1.557,1.557,0,0,0,0-2.2l-2.65-2.65c2.975-2.975,5.959-4.482,9.758-6.2,3.77,1.7,6.81,3.25,9.758,6.2l-2.65,2.65a1.557,1.557,0,0,0,0,2.2l15.773,15.773a1.557,1.557,0,0,0,2.2,0l26.132-26.132a1.558,1.558,0,0,0,0-2.2ZM75.08,105.409a2.927,2.927,0,0,1,2.631,4.042c-1.251-1.277-2.524-2.532-3.788-3.8l1.157-.246Zm-6.27-6.27a2.918,2.918,0,0,1,2.631,4.041A17.524,17.524,0,0,0,66.9,99.873,2.857,2.857,0,0,1,68.81,99.138ZM26.593,110.686l-.367-.367a2.876,2.876,0,0,1,4.068-4.068l.366.366-2.034,2.034ZM45.035,87.443a2.879,2.879,0,0,1,4.068,0l.367.367L45.4,91.877l-.367-.367A2.88,2.88,0,0,1,45.035,87.443Zm-7.112,8.3a2.877,2.877,0,0,1,4.91-2.034l.367.367-2.034,2.034-2.034,2.034-.367-.367A2.857,2.857,0,0,1,37.923,95.746ZM34.53,99.141a2.867,2.867,0,0,1,2.034.841l.367.367-4.068,4.068-.367-.367a2.875,2.875,0,0,1,2.034-4.909Zm-8.49,1.56a4.654,4.654,0,0,1,2.856-.714,6.021,6.021,0,0,0-.346,2.319,6.062,6.062,0,0,0-5.151,2.482A5.589,5.589,0,0,1,26.04,100.7Zm1.649,61.155L3.759,137.925l2.833-2.833,23.93,23.931Zm30.92-23.8a20,20,0,0,0-3.473-1.716,35.21,35.21,0,0,0,4.205-3.838,1.557,1.557,0,1,0-2.2-2.2,24.011,24.011,0,0,1-6.161,4.923c-4.255,2.127-7.843,3.689-11.267,7.113L26.475,129.094a1.557,1.557,0,0,0-2.2,2.2l16.988,16.988-8.537,8.537L8.793,132.89l8.537-8.537,1.541,1.541a1.557,1.557,0,0,0,2.2-2.2l-1.541-1.541,1.542-1.542a1.558,1.558,0,0,0,.443-.9l1.187-9.187a10.994,10.994,0,0,0,2.785,3.464,1.57,1.57,0,0,0,2.2,0L54.24,87.442c2.594-2.594,6.671,1.466,4.068,4.069a1.557,1.557,0,0,0,2.2,2.2c2.624-2.624,6.691,1.444,4.067,4.067a1.552,1.552,0,0,0-.456,1.1c0-.36-12.367-.192-13.368-.192-6.778,0-7.9,10.037-1.205,11.345l7.719,2.286a7.588,7.588,0,0,1,3.2,1.907l6.369,6.369-4.494,4.494a1.557,1.557,0,1,0,2.2,2.2l5.6-5.595a1.557,1.557,0,0,0,0-2.2l-7.47-7.47a10.712,10.712,0,0,0-4.522-2.69l-7.8-2.309c-2.872-.85-3.141-5.223.4-5.223H61.816c3,0,5.575,1.722,7.628,3.776,0,0,6.752,6.78,7.209,7.291,2.661,2.959,4.364,6.487,7.159,9.282l-20.18,20.18a28.549,28.549,0,0,0-5.022-4.28Zm17.044,23.8-2.833-2.833,23.931-23.931,2.833,2.833Z" transform="translate(-5 -70.048)" fill="#6573ff"/>
    <path id="Path_89" data-name="Path 89" d="M242.985,25.029a1.557,1.557,0,0,0,1.557-1.557V20.29a1.557,1.557,0,1,0-3.114,0v3.183A1.557,1.557,0,0,0,242.985,25.029Z" transform="translate(-192.643 -18.733)" fill="#6573ff"/>
    <path id="Path_90" data-name="Path 90" d="M201.266,32.381a1.557,1.557,0,1,0,2.853-1.248l-1.275-2.916a1.557,1.557,0,1,0-2.853,1.248Z" transform="translate(-159.703 -25.509)" fill="#6573ff"/>
    <path id="Path_91" data-name="Path 91" d="M168.043,56.635a1.557,1.557,0,0,0,2.114-2.286l-2.337-2.161a1.557,1.557,0,1,0-2.114,2.286Z" transform="translate(-132.243 -44.916)" fill="#6573ff"/>
    <path id="Path_92" data-name="Path 92" d="M277.782,33.184a1.556,1.556,0,0,0,2.05-.8l1.275-2.916a1.557,1.557,0,0,0-2.853-1.247l-1.275,2.916A1.557,1.557,0,0,0,277.782,33.184Z" transform="translate(-220.711 -25.509)" fill="#6573ff"/>
    <path id="Path_93" data-name="Path 93" d="M307.949,57.049a1.551,1.551,0,0,0,1.057-.414l2.337-2.161a1.557,1.557,0,1,0-2.114-2.286l-2.337,2.161a1.557,1.557,0,0,0,1.057,2.7Z" transform="translate(-244.122 -44.916)" fill="#6573ff"/>
    <ellipse id="Ellipse_19" data-name="Ellipse 19" cx="1.754" cy="1.754" rx="1.754" ry="1.754" transform="translate(29.296 77.093) rotate(-13.3)" fill="#6573ff"/>
  </g>
</svg>
