<svg xmlns="http://www.w3.org/2000/svg" width="104.539" height="104.54" viewBox="0 0 104.539 104.54">
  <g id="_001-online-course" data-name="001-online-course" transform="translate(0)">
    <g id="Group_94" data-name="Group 94" transform="translate(0)">
      <path id="Path_78" data-name="Path 78" d="M94.086,40.988V10.454a5.233,5.233,0,0,0-5.227-5.227H87.116A5.233,5.233,0,0,0,81.889,0H52.27a6.925,6.925,0,0,0-5.227,2.408A6.925,6.925,0,0,0,41.816,0H12.2A5.233,5.233,0,0,0,6.969,5.227H5.227A5.233,5.233,0,0,0,0,10.454V74.92a5.233,5.233,0,0,0,5.227,5.227h57.5v8.712A15.7,15.7,0,0,0,78.4,104.539H88.859a15.7,15.7,0,0,0,15.681-15.681v-33.1A15.694,15.694,0,0,0,94.086,40.988ZM87.116,8.712h1.742A1.745,1.745,0,0,1,90.6,10.454V40.176a15.675,15.675,0,0,0-1.742-.1H87.116ZM17.423,3.485H27.877V26.4L24.01,21.562a1.741,1.741,0,0,0-2.72,0L17.423,26.4V3.485ZM10.454,5.227A1.745,1.745,0,0,1,12.2,3.485h1.742V31.362a1.742,1.742,0,0,0,3.1,1.088l5.609-7.011,5.609,7.011a1.742,1.742,0,0,0,3.1-1.088V3.485H41.816A3.488,3.488,0,0,1,45.3,6.969V63.8a6.869,6.869,0,0,0-3.651-1.077h-31.2Zm0,60.981h31.2a3.75,3.75,0,0,1,3.609,3.485H10.454Zm52.27,10.454H5.227A1.745,1.745,0,0,1,3.485,74.92V10.454A1.745,1.745,0,0,1,5.227,8.712H6.969V71.435a1.742,1.742,0,0,0,1.742,1.742H62.724Zm0-6.969h-13.9a3.755,3.755,0,0,1,3.618-3.485h10.28Zm0-6.969H52.444A6.883,6.883,0,0,0,48.785,63.8V6.969A3.488,3.488,0,0,1,52.27,3.485h29.62a1.745,1.745,0,0,1,1.742,1.742V40.073H78.4A15.7,15.7,0,0,0,62.724,55.754ZM81.889,43.558v22.65H66.208V55.754a12.21,12.21,0,0,1,12.2-12.2h3.485Zm19.165,45.3a12.21,12.21,0,0,1-12.2,12.2H78.4a12.21,12.21,0,0,1-12.2-12.2V69.693h34.847V88.859Zm0-22.65H85.374V43.558h3.485a12.21,12.21,0,0,1,12.2,12.2Z" fill="#6573ff"/>
    </g>
  </g>
</svg>
