<svg xmlns="http://www.w3.org/2000/svg" width="36.415" height="36.402" viewBox="0 0 36.415 36.402">
  <g id="favc" transform="translate(-1.998 -2.002)">
    <path id="Path_99" data-name="Path 99" d="M36.591,21.882V15.917l1.6-1.311a.587.587,0,0,0,.225-.5.634.634,0,0,0-.273-.479L20.539,2.1a.631.631,0,0,0-.668,0L2.272,13.629A.634.634,0,0,0,2,14.108a.587.587,0,0,0,.225.5l6.451,5.28v.346a12.744,12.744,0,1,0,23.061,0v-.346l3.641-2.98v4.976l-1.487,2.974a1.821,1.821,0,0,0,1.633,2.634h.922a1.821,1.821,0,0,0,1.632-2.634Zm-21.229,3.18a21.3,21.3,0,0,1,1.287-7.113,35.032,35.032,0,0,1,3.556-.17,35.031,35.031,0,0,1,3.556.17,21.3,21.3,0,0,1,1.287,7.113Zm9.686,1.214a22.923,22.923,0,0,1-.759,5.541,12.505,12.505,0,0,0-8.169,0,22.923,22.923,0,0,1-.759-5.541Zm-4.843-9.71c-4.151,0-8.32.661-10.317,1.93V14.745c0-.825,3.641-2.428,10.317-2.428s10.317,1.6,10.317,2.428V18.5C28.526,17.228,24.357,16.566,20.206,16.566ZM15.29,18.114a23.293,23.293,0,0,0-1.141,6.949H8.693a11.365,11.365,0,0,1,1.135-4.424.592.592,0,0,0,.061-.267v-.164C9.889,19.619,11.77,18.629,15.29,18.114ZM8.705,26.276h5.444a24.074,24.074,0,0,0,.844,5.984,12.82,12.82,0,0,0-2.773,1.705,11.466,11.466,0,0,1-3.514-7.689Zm4.448,8.5a11.47,11.47,0,0,1,2.209-1.353,10.873,10.873,0,0,0,1.845,3.368,11.453,11.453,0,0,1-4.054-2.015ZM20.206,37.2c-1.359,0-2.773-1.566-3.72-4.224a11.279,11.279,0,0,1,7.44,0C22.979,35.634,21.565,37.2,20.206,37.2Zm3-.413a10.873,10.873,0,0,0,1.845-3.368,11.47,11.47,0,0,1,2.209,1.353A11.452,11.452,0,0,1,23.2,36.787Zm4.989-2.822a12.82,12.82,0,0,0-2.773-1.705,24.074,24.074,0,0,0,.844-5.984h5.444A11.466,11.466,0,0,1,28.192,33.965Zm-1.93-8.9a23.293,23.293,0,0,0-1.141-6.949c3.52.516,5.4,1.505,5.4,2.094v.164a.592.592,0,0,0,.061.267,11.365,11.365,0,0,1,1.135,4.424Zm5.474-6.742V14.745c0-2.391-5.8-3.641-11.531-3.641S8.675,12.354,8.675,14.745V18.32L3.632,14.193,20.206,3.336,36.78,14.193Zm5.225,7.671a.586.586,0,0,1-.516.285h-.922a.586.586,0,0,1-.516-.285.612.612,0,0,1-.03-.595l1.007-2.009L36.992,25.4A.612.612,0,0,1,36.962,25.991Z" transform="translate(0)" fill="#e8c842"/>
  </g>
</svg>
