<svg xmlns="http://www.w3.org/2000/svg" width="148" height="50" viewBox="0 0 148 50">
  <g id="logo" transform="translate(-46 -21)">
    <text id="_." data-name="." transform="translate(160 60) rotate(180)" fill="#e8c842" font-size="28" font-family="Poppins-Bold, Poppins" font-weight="700"><tspan x="0" y="29">.</tspan></text>
    <text id="y" transform="translate(174 35)" fill="#e8c842" font-size="26" font-family="Poppins-Bold, Poppins" font-weight="700"><tspan x="0" y="27">y</tspan></text>
    <text id="Feynity" transform="translate(83 30)" fill="#6573ff" font-size="28" font-family="Poppins-Bold, Poppins" font-weight="700"><tspan x="0" y="29">Feynity</tspan></text>
    <g id="favc" transform="translate(44.002 28.914)">
      <path id="Path_99" data-name="Path 99" d="M33.629,20.18V14.725l1.459-1.2a.537.537,0,0,0,.205-.455.579.579,0,0,0-.25-.438L18.951,2.09a.577.577,0,0,0-.61,0L2.249,12.633a.579.579,0,0,0-.25.438.537.537,0,0,0,.205.455l5.9,4.828v.316a11.653,11.653,0,1,0,21.086,0v-.316l3.329-2.725v4.55L31.159,22.9a1.665,1.665,0,0,0,1.493,2.408H33.5A1.665,1.665,0,0,0,34.988,22.9Zm-19.41,2.908a19.473,19.473,0,0,1,1.176-6.5,32.031,32.031,0,0,1,3.252-.155,32.031,32.031,0,0,1,3.252.155,19.473,19.473,0,0,1,1.176,6.5Zm8.856,1.11a20.96,20.96,0,0,1-.694,5.066,11.434,11.434,0,0,0-7.469,0,20.96,20.96,0,0,1-.694-5.066Zm-4.428-8.878c-3.8,0-7.608.6-9.433,1.765V13.654c0-.755,3.329-2.22,9.433-2.22s9.433,1.465,9.433,2.22v3.429C26.254,15.924,22.442,15.319,18.646,15.319Zm-4.495,1.415a21.3,21.3,0,0,0-1.043,6.354H8.12a10.392,10.392,0,0,1,1.038-4.045.542.542,0,0,0,.055-.244v-.15C9.213,18.11,10.933,17.205,14.152,16.734ZM8.131,24.2h4.977a22.012,22.012,0,0,0,.771,5.471,11.722,11.722,0,0,0-2.536,1.559A10.484,10.484,0,0,1,8.131,24.2ZM12.2,31.966a10.488,10.488,0,0,1,2.02-1.237,9.942,9.942,0,0,0,1.687,3.08A10.472,10.472,0,0,1,12.2,31.966Zm6.448,2.22c-1.243,0-2.536-1.432-3.4-3.862a10.313,10.313,0,0,1,6.8,0C21.182,32.754,19.889,34.185,18.646,34.185Zm2.741-.377a9.942,9.942,0,0,0,1.687-3.08,10.488,10.488,0,0,1,2.02,1.237,10.472,10.472,0,0,1-3.707,1.842Zm4.561-2.58a11.722,11.722,0,0,0-2.536-1.559,22.012,22.012,0,0,0,.771-5.471h4.977A10.484,10.484,0,0,1,25.949,31.228Zm-1.765-8.14a21.3,21.3,0,0,0-1.043-6.354c3.218.472,4.939,1.376,4.939,1.914v.15a.542.542,0,0,0,.055.244,10.392,10.392,0,0,1,1.038,4.045Zm5.005-6.165V13.654c0-2.186-5.3-3.329-10.543-3.329S8.1,11.468,8.1,13.654v3.268L3.492,13.149,18.646,3.222,33.8,13.149Zm4.778,7.014a.536.536,0,0,1-.472.261h-.843a.536.536,0,0,1-.472-.261.559.559,0,0,1-.028-.544l.921-1.837.921,1.837A.559.559,0,0,1,33.967,23.936Z" transform="translate(0)" fill="#e8c842"/>
    </g>
  </g>
</svg>
